<?xml version="1.0" encoding="utf-8"?>
<!-- Generator: Adobe Illustrator 25.0.0, SVG Export Plug-In . SVG Version: 6.00 Build 0)  -->
<svg version="1.1" id="Calque_1" xmlns="http://www.w3.org/2000/svg" xmlns:xlink="http://www.w3.org/1999/xlink" x="0px" y="0px"
	 viewBox="0 0 500 300" style="enable-background:new 0 0 500 300;" xml:space="preserve">
<style type="text/css">
	.st0{fill:#FFEEBC;}
	.st1{fill:#EE6C7A;}
</style>
<g>
	<g>
		<g>
			<path class="st0" d="M87.2,171.1c0-3.4,1.7-6.5,4.9-7.8c4.5,5.7,10.4,11.6,16,12.8c5.9-7.3,11.7-24.4,14.7-31.4
				c7.1-17.8,15-40,23.6-59.7c4.4-9.9,9.8-13.6,14.3-13.6c1.8,0,3.4,0.8,4.5,2c-1.1,2.4-3.4,8.6-4.5,11.1
				c-8.7,21.5-17,43.7-26.1,65.2c0.4,0,0.8,0,1.2,0c19.3,0,38.3-47.1,38.3-69.3c0-15.7-7.1-24.9-19.8-26.9
				c-33.9,2.2-54.5,37-54.5,66.5c0,7.7,1.7,13.1,4.9,13.7c9-7.1,17-34.5,17-48.6c0-1.2,0-2.2-0.1-3.2c0.8-0.4,1.6-0.5,2.4-0.5
				c3.8,0,7.7,4.2,7.7,14.1c0,15.2-11.1,42.8-26.9,42.8c-11.1,0-16.1-9.4-16.1-22.2c0-28.4,23.2-66.9,60.5-66.9
				c25.6,0,38.3,12.3,38.3,32.9c0.4,29.8-24.9,73.1-43.8,73.1c-3.7,0-7.4-1.1-10.4-2c-0.7,1.6-1.5,3.3-2.1,4.9
				c-5.7,12.8-11.6,25.2-27.9,25.2C91.9,183.4,87.2,176.8,87.2,171.1z"/>
			<path class="st0" d="M237.7,100.1c1.3-0.3,2.8,0.1,2.8,1.6c0,5.3-18.9,59.1-44.2,59.1c-10.3,0-18.7-6.1-18.7-15.2
				c0-13.3,7.5-35.2,17.8-46.9c3.4-4,7.8-6.7,13.9-6.7c6.7,0,14.1,3.3,14.1,12.9c0,11.1-13.5,37.9-29.7,37.9c-1.2,0-2.4-0.1-3.7-0.5
				c-0.1,1.5-0.3,2.8-0.3,4c0,4.2,1.6,7,5.7,8.6C207.4,152.3,227.8,124.4,237.7,100.1z M190.7,138.7c11.9-2,23.5-28.9,23.5-38.5
				c0-1.5-0.3-2.5-0.9-3C207,97.5,194.4,122.4,190.7,138.7z"/>
			<path class="st0" d="M225.8,150.3c0-6.5,18.9-37,18.9-41.1c0-1.8-1.2-2.6-2.8-3.7c-4.8-3-5.9-5.8-5.9-11.5
				c0-14,5.4-19.7,10.4-19.7c2.5,0,5,1.3,6.5,3.8c-2.9,4.1-6.3,9.4-10.7,18c-0.7,1.3-0.9,2.1-0.9,3.3c0,1.1,0.4,1.7,1.2,2
				c9.8,3.2,12.9,3.2,12.9,9.2c0,4.2-5.1,15.2-9.9,25.3c-3.8,8.2-7.3,16-7.5,19.5c11.1-5.3,24.9-30.1,33.3-50.2
				c0.9-0.1,1.1,0.1,1.1,0.8c0,6.6-20.9,54.6-37,54.6C230.1,160.8,225.8,155.8,225.8,150.3z"/>
			<path class="st0" d="M254.2,203.1c-5.7,0-12.5-4.2-12.5-11.1c0-9.6,12.9-43.6,22.6-68.6c-1.8-0.4-3.4-0.8-5.1-1.2
				c-0.3-1.2,0.3-2.8,2.6-2.8c1.3,0,2.6,0,4,0c11.6-30.4,23.9-58.1,29.3-69c5.3-0.1,10,1.7,10,4.5c0,2.5-4.6,12.1-8.7,21.5
				c-5.7,13.2-12.3,29-17.6,42.9c8.7-0.1,18.1-0.3,27.5-0.1c0.3,0.4,0.4,0.8,0.4,1.2c0,3-8.8,4.8-24.2,4.8c-1.3,0-2.6,0-3.8-0.1
				c3,1.6,4.2,5.3,4.2,12.7C282.8,155.8,265.6,203.1,254.2,203.1z M276.6,132.5c0-2.6-0.1-4.5-0.8-5.5
				c-11.7,32.2-26.3,63.5-21.8,70.5C260.4,194.5,276.9,152.8,276.6,132.5z"/>
			<path class="st0" d="M306.6,160.8h-0.1c-10.3,0-18.6-6.1-18.6-15.2c0-13.3,7.5-35.2,17.8-46.9c3.4-4,7.8-6.7,13.9-6.7
				c6.7,0,14.1,3.3,14.1,12.9c0,11.1-13.5,37.9-29.7,37.9c-1.2,0-2.4-0.1-3.7-0.5c-0.1,1.5-0.3,2.8-0.3,4c0,4.2,1.6,7,5.1,8.3
				c16.4-2.2,31.7-29,40-49.2c0.9-0.1,1.1,0.1,1.1,0.8C346.3,112.8,324.6,160.8,306.6,160.8z M301.1,138.7
				c11.9-2,23.5-28.9,23.5-38.5c0-1.5-0.3-2.5-0.9-3C317.5,97.5,304.9,122.4,301.1,138.7z"/>
			<path class="st0" d="M347.6,160.8c-10.4,0-18.5-6.2-18.5-15.3c0-15.2,8.3-41.6,20.7-51.1c2.1-1.6,6.3-2.4,9.2-2.4
				c7.8,0,14.9,4.8,14.9,14.7c0,8.4-5.8,26.9-15.8,26.9c-2.1,0-4.5-1.3-5.3-3.6c4.2-4.9,11.5-21.8,11.5-29.7c0-1.7-0.3-2.9-1.1-3.4
				c-6.9,0.4-21.1,32.5-21.1,48.6c0,4,1.1,6.9,3.2,8.6c17.2-3,32.5-28.6,40.8-48.7c0.9-0.1,1.1,0.1,1.1,0.8
				C387.1,112.8,365.3,160.8,347.6,160.8z"/>
			<path class="st0" d="M371,150.4c0-7.4,9.5-32.7,17.4-52c-2.6-0.1-5-0.4-7-0.7c-0.1-0.5-0.1-0.7-0.1-1.1c0-1.3,0.5-2.5,2.4-2.6
				c2.1-0.1,4.4-0.1,6.6-0.1c3.2-7.5,5.8-13.7,7.3-16.6c7.4-0.3,9.9,2.1,9.9,5.1c0,2.1-2.1,7-4.2,11.5c3.2,0,6.2,0.1,9.1,0.1
				c0.4,0.7,0.5,1.2,0.5,1.6c0,2.1-3.7,2.9-11.6,3.2c-4.5,11.1-9.6,24.6-16,42c-1.3,3.8-2,6.7-2,8.8c-0.1,2.4,0.5,3.8,1.6,4.9
				c5.3-2.8,10-9.4,13.6-15.7c1.1-0.1,1.8,0.1,1.8,1.5c0,5.7-10.3,20.6-18.2,20.6C376.6,160.8,371,156.4,371,150.4z"/>
		</g>
	</g>
	<g>
		<path class="st1" d="M132,238.6c0-3.4,1.7-6.5,4.9-7.8c4.5,5.7,10.4,11.6,16,12.8c5.9-7.3,11.7-24.4,14.7-31.4
			c7.1-17.8,15-40,23.6-59.7c4.4-9.9,9.8-13.6,14.3-13.6c1.8,0,3.4,0.8,4.5,2c-1.1,2.4-3.4,8.6-4.5,11.1
			c-8.7,21.5-17,43.7-26.1,65.2c0.4,0,0.8,0,1.2,0c19.3,0,38.3-47.1,38.3-69.3c0-15.7-7.1-24.9-19.8-26.9
			c-33.9,2.2-54.5,37-54.5,66.5c0,7.7,1.7,13.1,4.9,13.7c9-7.1,17-34.5,17-48.6c0-1.2,0-2.2-0.1-3.2c0.8-0.4,1.6-0.5,2.4-0.5
			c3.8,0,7.7,4.2,7.7,14.1c0,15.2-11.1,42.8-26.9,42.8c-11.1,0-16.1-9.4-16.1-22.2c0-28.4,23.2-66.9,60.5-66.9
			c25.6,0,38.3,12.3,38.3,32.9c0.4,29.8-24.9,73.1-43.8,73.1c-3.7,0-7.4-1.1-10.4-2c-0.7,1.6-1.5,3.3-2.1,4.9
			c-5.7,12.8-11.6,25.2-27.9,25.2C136.7,250.9,132,244.3,132,238.6z"/>
		<path class="st1" d="M241,228.3h-0.1c-10.3,0-18.6-6.1-18.6-15.2c0-13.3,7.5-35.2,17.8-46.9c3.4-4,7.8-6.7,13.9-6.7
			c6.7,0,14.1,3.3,14.1,12.9c0,11.1-13.5,37.9-29.7,37.9c-1.2,0-2.4-0.1-3.7-0.5c-0.1,1.5-0.3,2.8-0.3,4c0,4.2,1.6,7,5.1,8.3
			c16.4-2.2,31.7-29,40-49.2c0.9-0.1,1.1,0.1,1.1,0.8C280.6,180.3,259,228.3,241,228.3z M235.5,206.2c11.9-2,23.5-28.9,23.5-38.5
			c0-1.5-0.3-2.5-0.9-3C251.8,165,239.2,189.9,235.5,206.2z"/>
		<path class="st1" d="M287.5,220.4c0-3.3,3-10.3,5.5-18c-7.3,14.4-13.2,25.9-19.5,25.9c-4.6,0-10.6-4.5-10.6-10.6
			c0-7.5,2.9-18.5,6.9-28.4c6.1-15.4,13.5-29.7,22.4-29.7c4.6,0,10.2,4.1,10.8,11.5c1.5-3.6,2.8-7.1,4-10.2c5.4-0.1,9.6,0.3,9.6,5.1
			c0,3.3-3.8,14.5-8.2,26c-4.8,12.4-10.6,24.8-12,30.8c8.6-3.4,23.6-30,31.9-50c0.9-0.1,1.1,0.1,1.1,0.8c0,6.6-21.4,54.6-34.2,54.6
			C291.3,228.3,287.5,224,287.5,220.4z M292.9,194.3c3.2-6.9,7.1-14.4,7.1-19.3c0.1-4.5-2-7.1-4.2-7.1c-2.6,0-5.9,5.3-14.9,27.5
			c-4.8,11.6-7.4,23.4-6.7,26.9C278.9,220,286.1,208,292.9,194.3z"/>
		<path class="st1" d="M331.8,228.3c-10.4,0-18.5-6.2-18.5-15.3c0-15.2,8.3-41.6,20.7-51.1c2.1-1.6,6.3-2.4,9.2-2.4
			c7.8,0,14.9,4.8,14.9,14.7c0,8.4-5.8,26.9-15.8,26.9c-2.1,0-4.5-1.3-5.3-3.6c4.2-4.9,11.5-21.8,11.5-29.7c0-1.7-0.3-2.9-1.1-3.4
			c-6.9,0.4-21.1,32.5-21.1,48.6c0,4,1.1,6.9,3.2,8.6c17.2-3,32.5-28.6,40.8-48.7c0.9-0.1,1.1,0.1,1.1,0.8
			C371.4,180.3,349.5,228.3,331.8,228.3z"/>
		<path class="st1" d="M379.1,217.6c0-4.6,4.2-15.6,10-26.8c5.9-11.4,12.1-21.9,11.6-25.9c-6.7,0.3-31.7,46.5-38.8,62.8
			c-4.8-0.3-9.2-0.7-9.2-4.9c0-3.6,3.4-14.5,8.1-26.7c3-8.1,6.3-16.4,9.5-24.4c8.4-21.1,17-41.6,21.3-50.4c-2.8,0.7-5,0.9-6.9,0.9
			c-3.7,0-4.8-0.9-4.9-2.5c0-0.8,0.3-1.6,0.7-2.5c6.1,0.3,10-0.8,13.9-0.8c4.6,0,8.3,4.6,8.3,8.1c0,2.8-4.6,11.7-8.1,19.8
			c-6.3,14.9-13.7,32.9-20.2,50.7c9.9-19,19-35.1,27.2-35.1c4.6,0,11.1,2.2,11.1,8.3c0,4.5-4.5,14.7-10.6,26.7
			c-5.1,10.4-11.1,22.3-11,27.1c5.4-2.6,10.2-9.4,13.7-15.7c1.1-0.1,1.8,0.1,1.8,1.5c0,5.7-10.3,20.6-18.2,20.6
			C384,228.3,379.1,223.6,379.1,217.6z"/>
	</g>
</g>
</svg>
